/* XPM */
static const char * mouse_xpm[] = {
"30 30 111 2",
"  	c None",
". 	c #231B38",
"+ 	c #4C3086",
"@ 	c #44257F",
"# 	c #6C19DB",
"$ 	c #5519AD",
"% 	c #5B21B4",
"& 	c #50229D",
"* 	c #6B1AD8",
"= 	c #671AD0",
"- 	c #651CCC",
"; 	c #28213C",
"> 	c #5D29B4",
", 	c #6A1AD6",
"' 	c #6B1AD9",
") 	c #4B278E",
"! 	c #4D2D8C",
"~ 	c #522B9B",
"{ 	c #671BD0",
"] 	c #6C1AD9",
"^ 	c #621FC4",
"/ 	c #5E27B7",
"( 	c #661DCB",
"_ 	c #631AC7",
": 	c #681DD1",
"< 	c #402476",
"[ 	c #651737",
"} 	c #6B1AD6",
"| 	c #6A1AD7",
"1 	c #641DC8",
"2 	c #3E276E",
"3 	c #6C1ADA",
"4 	c #6B19D8",
"5 	c #5420A6",
"6 	c #652EC1",
"7 	c #44198B",
"8 	c #661DCC",
"9 	c #6020C0",
"0 	c #212024",
"a 	c #4C2D89",
"b 	c #6A1BD6",
"c 	c #402279",
"d 	c #621FC3",
"e 	c #5F1CBE",
"f 	c #531AA8",
"g 	c #292733",
"h 	c #5D26B6",
"i 	c #6A1BD7",
"j 	c #5429A1",
"k 	c #681CD2",
"l 	c #681FD1",
"m 	c #39334C",
"n 	c #681FD0",
"o 	c #6B19D9",
"p 	c #591FB0",
"q 	c #5E1EBB",
"r 	c #3C1D73",
"s 	c #6737BE",
"t 	c #6B19C8",
"u 	c #561CAD",
"v 	c #565362",
"w 	c #5D226C",
"x 	c #6B1ADA",
"y 	c #561DAC",
"z 	c #474843",
"A 	c #5C20B7",
"B 	c #4B4C47",
"C 	c #521BA5",
"D 	c #5D5A68",
"E 	c #6228C0",
"F 	c #6C19D9",
"G 	c #642FBE",
"H 	c #5D18AD",
"I 	c #5720AC",
"J 	c #4E4F4B",
"K 	c #661ECC",
"L 	c #581CB0",
"M 	c #5D22B7",
"N 	c #51524E",
"O 	c #5F1DBF",
"P 	c #691AD5",
"Q 	c #5724AB",
"R 	c #642CC0",
"S 	c #631AC8",
"T 	c #561EAC",
"U 	c #605D6A",
"V 	c #232326",
"W 	c #631CC8",
"X 	c #242928",
"Y 	c #5722AC",
"Z 	c #545451",
"` 	c #6C17AC",
" .	c #5D23B7",
"..	c #575754",
"+.	c #442A7A",
"@.	c #6B1AD7",
"#.	c #251B41",
"$.	c #6225BE",
"%.	c #561FAB",
"&.	c #6C5B9B",
"*.	c #5F1BBF",
"=.	c #5519AE",
"-.	c #6123C1",
";.	c #5C19BB",
">.	c #5419AA",
",.	c #4B3383",
"'.	c #662EC4",
").	c #601FC0",
"!.	c #601DC0",
"~.	c #641AC9",
"{.	c #3F2770",
". +                                                         ",
"@ # $ % &                                                   ",
"  * * * = - ;                                               ",
"  > * * * * , ' ) !                                         ",
"  ~ { * * * * * ] ' ^ /                                     ",
"    ( * * * * * * * * * _ : <                               ",
"    [ } * * * * * * * * * * | 1 2                           ",
"      ' * * * * * * * * * * * * 3 4 5 6                     ",
"      7 ] * * * * * * * * * * * * * * * 8 9 0               ",
"      a ' * * * * * * * * * * * * * * * * * | b c           ",
"        d * * * * * * * * * * * * * * * * * * * 3 e f g     ",
"        h * * * * * * * * * * * * * * * * * * * i ' j       ",
"          b * * * * * * * * * * * * * * * * k l m           ",
"          n * * * * * * * * * * * * * o p q                 ",
"          r | * * * * * * * * * * * * s                     ",
"            t * * * * * * * * * * * * u v                   ",
"            w x * * * * * * * * * * * 3 y z                 ",
"              * * * * * * * * * * * * * * A B               ",
"              C * * * * * * * * * * * * * * y D             ",
"              E * * * * * F G H 3 * * * * * 3 I J           ",
"                K * * * * L     $ * * * * * * * M N         ",
"                O * * * P Q     R S * * * * * * * T U       ",
"                V | * * W         X * ' * * * * * 3 Y Z     ",
"                  b * * :             ` * * * * * * *  ...  ",
"                  +.3 @.#.            $.@.* * * * * * * %.&.",
"                    *.=.                -.* * * * * * * 3 ;.",
"                    >.,.                    * * * * * * *   ",
"                    '.                      ).@.* * * *     ",
"                                              !.* 3 *       ",
"                                                ~.{.        "};
