/* XPM */
static const char * num_2_xpm[] = {
"30 43 4 1",
" 	c None",
".	c #5E5E5E",
"+	c #5D5D5D",
"@	c #5F5F5F",
"                              ",
"                              ",
"                              ",
"                              ",
"           .......            ",
"         ............         ",
"       +..............        ",
"      .................       ",
"     ..................@      ",
"     ......+     .......      ",
"    .......       ......@     ",
"    ......        +......     ",
"    .....@         ......     ",
"   ......          ......     ",
"                   ......     ",
"                   .....+     ",
"                  @......     ",
"                  ......      ",
"                 @......      ",
"                 ......       ",
"                .......       ",
"               .......        ",
"              .......         ",
"             .......          ",
"            .......           ",
"            ......            ",
"           ......             ",
"          ......              ",
"         ......@              ",
"        .......               ",
"       ......@                ",
"      ......@                 ",
"     ....... ............     ",
"    .....................     ",
"   .......................    ",
"   ......................@    ",
"   ......................@    ",
"   ......................@    ",
"                              ",
"                              ",
"                              ",
"                              ",
"                              "};
