/* XPM */
static const char * num_8_xpm[] = {
"30 43 4 1",
" 	c None",
".	c #5F5F5F",
"+	c #5E5E5E",
"@	c #5D5D5D",
"                              ",
"                              ",
"            ..++@+            ",
"          +++++++++++         ",
"        ++++++++++++++        ",
"       ++++++++++++++++       ",
"      .+++++++++++++++++      ",
"      +++++++    ++++++++     ",
"     ++++++.      +++++++     ",
"     ++++++        ++++++     ",
"     ++++++        ++++++@    ",
"     ++++++        .++++++    ",
"     ++++++        .++++++    ",
"     ++++++        @+++++@    ",
"     ++++++        ++++++     ",
"     ++++++        ++++++     ",
"      ++++++      .++++++     ",
"      ++++++@    @++++++      ",
"       ++++++++++++++++.      ",
"        .+++++++++++++        ",
"         ++++++++++++@        ",
"       ++++++++++++++++       ",
"      +++++++++++++++++++     ",
"     +++++++@     +++++++     ",
"    +++++++        +++++++    ",
"    +++++++         ++++++    ",
"    ++++++          +++++++   ",
"    ++++++          +++++++   ",
"    ++++++          ++++++@   ",
"    ++++++          +++++++   ",
"    ++++++          ++++++@   ",
"    +++++++         ++++++    ",
"    ++++++++       +++++++    ",
"     +++++++.     +++++++.    ",
"     ++++++++++++++++++++     ",
"      ++++++++++++++++++      ",
"       ++++++++++++++++       ",
"         +++++++++++++        ",
"           .++++.++           ",
"                              ",
"                              ",
"                              ",
"                              "};
