/* XPM */
static const char * time_sep_xpm[] = {
"15 43 4 1",
" 	c None",
".	c #5E5E5E",
"+	c #5D5D5D",
"@	c #5F5F5F",
"               ",
"               ",
"               ",
"               ",
"               ",
"               ",
"               ",
"               ",
"               ",
"               ",
"     ....      ",
"    ......     ",
"    .......    ",
"   +.......    ",
"   ........    ",
"    .......    ",
"    ......     ",
"      .+.      ",
"               ",
"               ",
"               ",
"               ",
"               ",
"               ",
"               ",
"               ",
"               ",
"     ....      ",
"    ......     ",
"    .......    ",
"   @.......    ",
"   ........    ",
"    .......    ",
"    ......     ",
"     ...+      ",
"               ",
"               ",
"               ",
"               ",
"               ",
"               ",
"               ",
"               "};
